<?xml version="1.0" encoding="UTF-8" standalone="no"?>
<svg width="20px" height="20px" viewBox="0 0 20 20" version="1.1" xmlns="http://www.w3.org/2000/svg" xmlns:xlink="http://www.w3.org/1999/xlink">
    <!-- Generator: Sketch 3.8.3 (29802) - http://www.bohemiancoding.com/sketch -->
    <title>Artboard 11</title>
    <desc>Created with Sketch.</desc>
    <defs></defs>
    <g id="Page-1" stroke="none" stroke-width="1" fill="none" fill-rule="evenodd">
        <g id="Artboard-11" fill="#4E4E4E">
            <path d="M10.7049622,5.57189667 C10.6227231,5.61611332 10.552466,5.67678269 10.4941906,5.754419 C10.4353707,5.83154109 10.3885325,5.92563012 10.3536762,6.03617178 C10.3182754,6.14671345 10.3008472,6.2685664 10.3008472,6.40121652 L10.3008472,8.1601149 L13.5,8.1601149 L13.5,10.6496169 L10.3008472,10.6496169 L10.3008472,18.15 L7.24220874,18.15 L7.24220874,10.6496169 L4.5,10.6496169 L4.5,8.1601149 L7.24220874,8.1601149 L7.24220874,6.6670307 C7.24220874,6.15802473 7.33588506,5.67112705 7.52323752,5.20633782 C7.71058998,4.74206262 7.96874436,4.33280126 8.29661121,3.97855367 C8.62502265,3.62482021 9.01170954,3.34820888 9.4566717,3.14871967 C9.90217854,2.94974461 10.3945235,2.85 10.9337065,2.85 L13.5,2.85 L13.5,5.50505745 L10.9337065,5.50505745 C10.8629047,5.50505745 10.7872012,5.52767994 10.7049622,5.57189667 Z" id="fb-copy"></path>
        </g>
    </g>
</svg>