<?xml version="1.0" encoding="UTF-8" standalone="no"?>
<svg width="16px" height="16px" viewBox="0 0 16 16" version="1.1" xmlns="http://www.w3.org/2000/svg" xmlns:xlink="http://www.w3.org/1999/xlink">
    <!-- Generator: Sketch 41.1 (35376) - http://www.bohemiancoding.com/sketch -->
    <title>Artboard 4 Copy 4</title>
    <desc>Created with Sketch.</desc>
    <defs></defs>
    <g id="Page-1" stroke="none" stroke-width="1" fill="none" fill-rule="evenodd">
        <g id="Artboard-4-Copy-4" fill="#FFFFFF">
            <path d="M9.20496216,2.72189667 C9.12272313,2.76611332 9.05246598,2.82678269 8.99419062,2.904419 C8.93537067,2.98154109 8.88853251,3.07563012 8.85367623,3.18617178 C8.81827536,3.29671345 8.80084722,3.4185664 8.80084722,3.55121652 L8.80084722,5.3101149 L12,5.3101149 L12,7.79961687 L8.80084722,7.79961687 L8.80084722,15.3 L5.74220874,15.3 L5.74220874,7.79961687 L3,7.79961687 L3,5.3101149 L5.74220874,5.3101149 L5.74220874,3.8170307 C5.74220874,3.30802473 5.83588506,2.82112705 6.02323752,2.35633782 C6.21058998,1.89206262 6.46874436,1.48280126 6.79661121,1.12855367 C7.12502265,0.774820214 7.51170954,0.498208882 7.9566717,0.298719674 C8.40217854,0.0997446088 8.89452345,0 9.43370652,0 L12,0 L12,2.65505745 L9.43370652,2.65505745 C9.36290469,2.65505745 9.28720119,2.67767994 9.20496216,2.72189667 Z" id="fb-copy-2"></path>
        </g>
    </g>
</svg>