<?xml version="1.0" encoding="UTF-8" standalone="no"?>
<svg width="13px" height="13px" viewBox="0 0 13 13" version="1.1" xmlns="http://www.w3.org/2000/svg" xmlns:xlink="http://www.w3.org/1999/xlink">
    <!-- Generator: Sketch 3.8.3 (29802) - http://www.bohemiancoding.com/sketch -->
    <title>Artboard 32 Copy</title>
    <desc>Created with Sketch.</desc>
    <defs></defs>
    <g id="Page-1" stroke="none" stroke-width="1" fill="none" fill-rule="evenodd">
        <g id="Artboard-32-Copy" fill="#000000">
            <path d="M11.2776368,3.67855645 C11.199843,3.77745422 11.1187105,3.86933555 11.0339054,3.95420052 C10.9491002,4.03873142 10.8572835,4.12359639 10.7584555,4.20846135 C10.6596274,4.29332631 10.5607993,4.3711749 10.4619712,4.441673 L10.4619712,4.50548878 C10.4619712,4.51952158 10.46531,4.54057077 10.4723214,4.56897044 C10.4796668,4.59737017 10.4830056,4.61841936 10.4830056,4.6324521 L10.4830056,4.71731713 C10.4830056,5.38153591 10.3557978,6.06379689 10.1017161,6.76343177 C9.84730059,7.46306666 9.47302257,8.08852817 8.97888218,8.63948232 C8.48440787,9.19077058 7.87374377,9.64683628 7.14622216,10.0070113 C6.41870055,10.3675204 5.58901203,10.5405914 4.6568228,10.5265586 C4.36000467,10.5405914 4.0742045,10.5232175 3.79875461,10.4734345 C3.52330472,10.4239856 3.25119361,10.3641792 2.98308902,10.293347 C2.71465059,10.2228489 2.46023505,10.1272923 2.22017628,10.0070113 C1.98011752,9.88706431 1.74005876,9.76344208 1.5,9.63614463 C1.54240259,9.62211182 1.58480518,9.61843655 1.62720778,9.62545298 C1.66927648,9.63246936 1.71167907,9.63614463 1.75408167,9.63614463 C1.79648426,9.63614463 1.83888685,9.63948579 1.88128944,9.64683628 C1.92369203,9.65385266 1.96609462,9.65017744 2.00849721,9.63614463 C2.24855598,9.65017744 2.48160328,9.63246936 2.70763914,9.5830205 C2.93367499,9.53357159 3.15236554,9.4771063 3.36437847,9.41362463 C3.57605753,9.34980885 3.78105903,9.25792746 3.97871522,9.1379805 C4.17637141,9.01769943 4.36701611,8.90109364 4.55064937,8.78816306 C4.32494744,8.75976339 4.1092618,8.71398975 3.90459417,8.65017397 C3.69992654,8.5866923 3.51262063,8.48779453 3.34301024,8.35348065 C3.17373378,8.21916678 3.0288304,8.07082015 2.90896797,7.9081066 C2.78877167,7.74572716 2.69328236,7.55127272 2.62283396,7.32507751 C2.65121365,7.35347724 2.68293212,7.36750999 2.71798938,7.36750999 C2.75338051,7.36750999 2.78877167,7.37118526 2.82416277,7.37820164 C2.85922007,7.38521807 2.89127239,7.38521807 2.91931819,7.37820164 C2.94769792,7.37118526 2.97607758,7.37452642 3.00412338,7.38889329 C3.06054891,7.37452642 3.10996295,7.37118526 3.15236554,7.37820164 C3.19476814,7.38521807 3.24084339,7.3815428 3.29025742,7.36750999 C3.33967146,7.35347724 3.38541284,7.3464608 3.42781544,7.3464608 C3.47021803,7.3464608 3.51262063,7.33209394 3.55502323,7.30402832 C3.31496444,7.26159584 3.09594002,7.17673088 2.89828389,7.04943338 C2.70062769,6.92213593 2.52734466,6.77378931 2.37910253,6.60439344 C2.23086041,6.43466351 2.11433675,6.23686797 2.02953157,6.01067269 C1.94472639,5.78447748 1.90232379,5.55126583 1.90232379,5.31103781 L1.90232379,5.27929698 C1.97310607,5.32507062 2.04722714,5.36416194 2.12502086,5.38521118 C2.20248071,5.40626036 2.28027444,5.43098476 2.35806817,5.45938449 C2.43552803,5.48778417 2.51332176,5.50549225 2.59111549,5.51250863 C2.66857534,5.519525 2.75004173,5.53021665 2.83451306,5.54424946 C2.69328236,5.43098476 2.56974725,5.31805424 2.46390771,5.20512366 C2.35806817,5.09185897 2.26257888,4.95754515 2.1777737,4.80218209 C2.09330239,4.64681903 2.02953157,4.49112185 1.98712898,4.33575885 C1.94472639,4.18039579 1.92369203,4.00364943 1.92369203,3.80585389 C1.92369203,3.73502168 1.93070348,3.65015671 1.94472639,3.55125894 C1.95908317,3.45236117 1.97644486,3.36415505 1.99781309,3.28630652 C2.01918133,3.20845793 2.04722714,3.12359291 2.08261828,3.03171157 C2.11800942,2.93983018 2.15673934,2.86565686 2.19914193,2.80919157 C2.4532236,3.106219 2.73568495,3.38520423 3.04652598,3.64681561 C3.35736704,3.90809282 3.69291511,4.12727166 4.05283627,4.30401796 C4.41309136,4.48076432 4.79104202,4.62543573 5.18635435,4.73870043 C5.5820006,4.85163094 5.99166972,4.91511267 6.41536177,4.92947953 C6.41536177,4.90107986 6.41168906,4.86566375 6.40467762,4.82323127 C6.39766619,4.78113291 6.39032082,4.74204152 6.38330939,4.70662548 C6.37629795,4.67154349 6.37295917,4.6324521 6.37295917,4.59001962 L6.37295917,4.48410548 C6.37295917,4.18741216 6.42571199,3.91878447 6.53188541,3.67855645 C6.63772491,3.43832842 6.78262829,3.21914958 6.96592769,3.02135404 C7.14956095,2.82322438 7.36858537,2.6748777 7.6230009,2.57597992 C7.87708256,2.47708221 8.14552101,2.42061692 8.42798234,2.40625 C8.569213,2.42061692 8.71044373,2.43832495 8.85167439,2.45937413 C8.99290505,2.48042331 9.12712428,2.52285579 9.25433207,2.58667163 C9.38120594,2.6501533 9.5014023,2.72098545 9.61425323,2.79849992 C9.72743816,2.87634851 9.82626622,2.97190512 9.91107142,3.0848357 C10.0239224,3.04240322 10.1371073,3.00698712 10.2499582,2.97892156 C10.3631431,2.95052183 10.4759941,2.91510572 10.5888451,2.87267324 C10.7020299,2.83057487 10.8078695,2.78446712 10.9066976,2.73501826 C11.0055257,2.68556935 11.1043537,2.62542884 11.2035157,2.55493074 C11.175136,2.69626099 11.1290608,2.81620801 11.0656238,2.91510572 C11.0021869,3.01400349 10.9350773,3.11657654 10.864295,3.2228248 C10.7938466,3.328739 10.7090414,3.41694512 10.6102133,3.48777728 C10.5113852,3.55827538 10.4125572,3.63612396 10.3133952,3.72098893 C10.4125572,3.69258919 10.514724,3.67154001 10.6208974,3.65717315 C10.726737,3.64314034 10.8292377,3.61841588 10.9280658,3.58299977 C11.0268939,3.54758373 11.1220493,3.5158429 11.213866,3.48777728 C11.3056826,3.45937761 11.4011719,3.4239615 11.5,3.38152902 C11.4295516,3.48777728 11.3550966,3.57965867 11.2776368,3.67855645 L11.2776368,3.67855645 Z" id="tw-copy-3"></path>
        </g>
    </g>
</svg>