<?xml version="1.0" encoding="UTF-8" standalone="no"?>
<svg width="13px" height="13px" viewBox="0 0 13 13" version="1.1" xmlns="http://www.w3.org/2000/svg" xmlns:xlink="http://www.w3.org/1999/xlink">
    <!-- Generator: Sketch 3.8.3 (29802) - http://www.bohemiancoding.com/sketch -->
    <title>Artboard 32 Copy 2</title>
    <desc>Created with Sketch.</desc>
    <defs></defs>
    <g id="Page-1" stroke="none" stroke-width="1" fill="none" fill-rule="evenodd">
        <g id="Artboard-32-Copy-2" fill="#000000">
            <path d="M7.37193556,3.21459778 C7.31710954,3.24407555 7.27027144,3.28452179 7.2314212,3.33627933 C7.1922079,3.38769406 7.16098246,3.45042008 7.13774494,3.52411452 C7.11414436,3.59780896 7.1025256,3.67904426 7.1025256,3.76747768 L7.1025256,4.9400766 L9.23529412,4.9400766 L9.23529412,6.59974458 L7.1025256,6.59974458 L7.1025256,11.6 L5.06343328,11.6 L5.06343328,6.59974458 L3.23529412,6.59974458 L3.23529412,4.9400766 L5.06343328,4.9400766 L5.06343328,3.94468713 C5.06343328,3.60534982 5.12588416,3.28075137 5.2507858,2.97089188 C5.37568744,2.66137508 5.54779036,2.38853417 5.76636826,2.15236911 C5.98530922,1.91654681 6.24310048,1.73213925 6.53974192,1.59914645 C6.83674648,1.46649641 7.16497642,1.4 7.5244318,1.4 L9.23529412,1.4 L9.23529412,3.1700383 L7.5244318,3.1700383 C7.47723058,3.1700383 7.42676158,3.18511996 7.37193556,3.21459778 Z" id="fb-copy-2"></path>
        </g>
    </g>
</svg>