<?xml version="1.0" encoding="UTF-8" standalone="no"?>
<svg width="16px" height="16px" viewBox="0 0 16 16" version="1.1" xmlns="http://www.w3.org/2000/svg" xmlns:xlink="http://www.w3.org/1999/xlink">
    <!-- Generator: Sketch 41.1 (35376) - http://www.bohemiancoding.com/sketch -->
    <title>Artboard 4 Copy 7</title>
    <desc>Created with Sketch.</desc>
    <defs></defs>
    <g id="Page-1" stroke="none" stroke-width="1" fill="none" fill-rule="evenodd">
        <g id="Artboard-4-Copy-7" fill="#FFFFFF">
            <path d="M15.9692691,8.78919954 L15.9692691,14.3234339 L12.7608701,14.3234339 L12.7608701,9.15984919 C12.7608701,7.86271462 12.2968097,6.977471 11.1354756,6.977471 C10.2489443,6.977471 9.72136891,7.57406032 9.48926914,8.15116009 C9.40462877,8.357471 9.38284223,8.64462877 9.38284223,8.93342227 L9.38284223,14.3234339 L6.17336427,14.3234339 C6.17336427,14.3234339 6.21658933,5.57801624 6.17336427,4.67192575 L9.382529,4.67192575 L9.382529,6.0399884 C9.37602088,6.05022042 9.36756381,6.0612529 9.36143852,6.07117169 L9.382529,6.07117169 L9.382529,6.0399884 C9.80889791,5.38329466 10.570348,4.44518561 12.27471,4.44518561 C14.3862993,4.44515081 15.9692691,5.82462877 15.9692691,8.78919954 Z M2.81611369,0.0194199536 C1.71815545,0.0194199536 1,0.739593968 1,1.68664733 C1,2.61306265 1.69737819,3.35509281 2.77351508,3.35509281 L2.7949536,3.35509281 C3.91417633,3.35509281 4.61023202,2.61320186 4.61023202,1.68664733 C4.58914153,0.739593968 3.91417633,0.0194199536 2.81611369,0.0194199536 Z M1.19061485,14.3234339 L4.39887471,14.3234339 L4.39887471,4.67192575 L1.19061485,4.67192575 L1.19061485,14.3234339 Z" id="LinkedIn"></path>
        </g>
    </g>
</svg>