<svg width="16" height="16" viewBox="0 0 16 16" xmlns="http://www.w3.org/2000/svg">
    <title>Artboard 10 Copy 3</title>
    <path d="M14.034 8.947v4.374h-2.58V9.24c0-1.025-.372-1.725-1.306-1.725-.713 0-1.137.471-1.323.927-.068.164-.086.39-.086.619v4.26h-2.58s.035-6.912 0-7.628h2.58v1.08l-.017.026h.017v-.025c.343-.52.955-1.26 2.325-1.26 1.697 0 2.97 1.09 2.97 3.433zM3.46 2.015c-.883 0-1.46.57-1.46 1.318 0 .732.56 1.319 1.426 1.319h.017c.9 0 1.46-.587 1.46-1.319-.018-.748-.56-1.318-1.443-1.318zM2.153 13.321h2.58V5.693h-2.58v7.628z" fill="#444" fill-rule="evenodd"/>
</svg>