<?xml version="1.0" encoding="UTF-8" standalone="no"?>
<svg width="13px" height="13px" viewBox="0 0 13 13" version="1.1" xmlns="http://www.w3.org/2000/svg" xmlns:xlink="http://www.w3.org/1999/xlink">
    <!-- Generator: Sketch 3.8.3 (29802) - http://www.bohemiancoding.com/sketch -->
    <title>Artboard 32 Copy 4</title>
    <desc>Created with Sketch.</desc>
    <defs></defs>
    <g id="Page-1" stroke="none" stroke-width="1" fill="none" fill-rule="evenodd">
        <g id="Artboard-32-Copy-4" fill="#000000">
            <g id="soundcloud-copy" transform="translate(0.000000, 3.571429)">
                <path d="M11.3214281,2.40754348 C11.0953725,2.40754348 10.8799379,2.45114596 10.6830686,2.52975155 C10.5514542,1.11618323 9.30396405,0.00694409938 7.7820719,0.00694409938 C7.40991503,0.00694409938 7.04731699,0.0767484472 6.72622549,0.194555901 C6.60119608,0.240217391 6.56839869,0.287453416 6.5673366,0.379301242 L6.5673366,5.35773602 C6.56899346,5.45398447 6.64707843,5.52847205 6.74534314,5.5375559 C6.747,5.53779814 7.25565686,5.53779814 7.93361111,5.53779814 C9.28977451,5.53779814 11.3214281,5.5375559 11.3214281,5.5375559 C12.2322778,5.5375559 12.9719183,4.84322671 12.9719183,3.97658696 C12.9719183,3.11047205 12.2322778,2.40754348 11.3214281,2.40754348 L11.3214281,2.40754348 Z M2.67655556,1.64886025 C2.86688235,1.48749068 3.08554575,1.35720807 3.32392157,1.26588509 L3.32392157,5.52843168 L2.67655556,5.52843168 L2.67655556,1.64886025 L2.67655556,1.64886025 Z M4.12992157,1.11747516 C4.29237908,1.11747516 4.45075817,1.13487578 4.60310458,1.16729503 L4.60310458,5.52843168 L3.95573856,5.52843168 L3.95573856,1.12421739 C4.01415359,1.11981677 4.07205882,1.11747516 4.12992157,1.11747516 L4.12992157,1.11747516 Z M5.8819902,0.603732919 L5.8819902,5.52843168 L5.23462418,5.52843168 L5.23462418,1.19143789 C5.41619935,0.966723602 5.63465033,0.768736025 5.8819902,0.603732919 L5.8819902,0.603732919 Z M2.04040523,2.5419441 C2.04206209,2.53778571 2.04342157,2.53491925 2.04478105,2.53128571 L2.04478105,5.5283913 L1.4645817,5.5283913 L1.4645817,5.52136646 C1.44219281,5.51930745 1.41954902,5.51720807 1.39741503,5.51385714 L1.39741503,2.50455901 C1.47006209,2.49470807 1.54402614,2.48925776 1.61858497,2.48925776 C1.7640915,2.48929814 1.9060719,2.50795031 2.04040523,2.5419441 L2.04040523,2.5419441 Z M0.765852941,2.71813043 L0.765852941,5.30036646 C0.305797386,5.0323323 0,4.55440062 0,4.00848137 C0,3.46437888 0.305797386,2.9864472 0.765852941,2.71813043 L0.765852941,2.71813043 Z" id="Shape"></path>
            </g>
        </g>
    </g>
</svg>