<?xml version="1.0" encoding="UTF-8" standalone="no"?>
<svg width="13px" height="13px" viewBox="0 0 13 13" version="1.1" xmlns="http://www.w3.org/2000/svg" xmlns:xlink="http://www.w3.org/1999/xlink">
    <!-- Generator: Sketch 3.8.3 (29802) - http://www.bohemiancoding.com/sketch -->
    <title>Artboard 32</title>
    <desc>Created with Sketch.</desc>
    <defs></defs>
    <g id="Page-1" stroke="none" stroke-width="1" fill="none" fill-rule="evenodd">
        <g id="Artboard-32" fill="#000000">
            <g id="music-headphones-copy" transform="translate(1.000000, 2.000000)">
                <path d="M10.5367752,2.9897866 C10.2417857,2.39469231 9.84828151,1.8792804 9.3557542,1.44361787 C8.86306513,1.00795533 8.27784664,0.660372208 7.60058403,0.401091811 C6.92332143,0.141811414 6.21962185,0.0121488834 5.48936975,0.0121488834 C4.75923319,0.0121488834 4.0555105,0.141878412 3.37813235,0.401091811 C2.70070798,0.660282878 2.11576681,1.007866 1.62307773,1.44361787 C1.13038866,1.87936973 0.736745798,2.39469231 0.442056723,2.9897866 C0.147321429,3.58494789 0,4.20346898 0,4.84514888 C0,5.55087841 0.131907563,6.21821836 0.395838235,6.84734739 L0.527838235,7.15977916 L1.74839916,7.37008437 C1.84515756,7.72287097 2.04422059,8.01297022 2.34556513,8.2404268 C2.64679412,8.46772705 2.99096008,8.58144417 3.37808613,8.58144417 L3.37808613,8.78551861 C3.37808613,8.84496774 3.39782143,8.89389826 3.43743067,8.93208685 C3.47701681,8.97029777 3.52762605,8.98948139 3.58918908,8.98948139 L4.01141807,8.98948139 C4.07295798,8.98948139 4.12356723,8.97029777 4.16317647,8.93208685 C4.20267017,8.89387593 4.22252101,8.84496774 4.22252101,8.78551861 L4.22252101,5.11287097 C4.22252101,5.05333251 4.20276261,5.00444665 4.16317647,4.9662134 C4.12354412,4.92800248 4.07293487,4.90890819 4.01141807,4.90890819 L3.58918908,4.90890819 C3.52755672,4.90890819 3.47701681,4.92800248 3.43743067,4.9662134 C3.39782143,5.00444665 3.37808613,5.05333251 3.37808613,5.11287097 L3.37808613,5.31685608 C3.06569538,5.31685608 2.77985714,5.39236228 2.52029412,5.54330769 C2.2607542,5.69409677 2.0562605,5.89709926 1.90669748,6.15220347 L1.45798529,6.07562531 C1.33053782,5.67163027 1.26673319,5.26153846 1.26673319,4.84494789 C1.26673319,4.21588586 1.46020378,3.62293548 1.84728361,3.06611911 C2.23438655,2.5092804 2.75452941,2.06501985 3.40771218,1.73351613 C4.06089496,1.40199007 4.75477311,1.23626055 5.48934664,1.23626055 C6.22371218,1.23626055 6.91777521,1.40199007 7.57098109,1.73351613 C8.22423319,2.06501985 8.7442605,2.5092804 9.13145588,3.06611911 C9.5184895,3.62295782 9.71209874,4.21588586 9.71209874,4.84494789 C9.71209874,5.26153846 9.64834034,5.67165261 9.52086975,6.07562531 L9.07206513,6.15227047 C8.92236345,5.89709926 8.71793908,5.6942531 8.45853782,5.54339702 C8.1989979,5.39245161 7.91295168,5.31685608 7.60072269,5.31685608 L7.60072269,5.1129603 C7.60072269,5.05342184 7.5810105,5.00451365 7.54133193,4.96630273 C7.50188445,4.92815881 7.45127521,4.90890819 7.38966597,4.90890819 L6.96736765,4.90890819 C6.90585084,4.90890819 6.85521849,4.92815881 6.81570168,4.96630273 C6.77606933,5.00451365 6.75631092,5.05342184 6.75631092,5.1129603 L6.75631092,8.78565261 C6.75631092,8.84510174 6.77606933,8.89403226 6.81570168,8.93222084 C6.8552416,8.97043176 6.90585084,8.98961538 6.96736765,8.98961538 L7.38966597,8.98961538 C7.45127521,8.98961538 7.50188445,8.97043176 7.54133193,8.93222084 C7.58103361,8.89400993 7.60072269,8.84510174 7.60072269,8.78565261 L7.60072269,8.58157816 C7.9877563,8.58157816 8.33194538,8.46786104 8.6332437,8.24056079 C8.93463445,8.01310422 9.13360504,7.72300496 9.23031723,7.37021836 L10.4509013,7.15989082 L10.5829706,6.84748139 C10.8467857,6.21835236 10.9787857,5.55099007 10.9787857,4.84530521 C10.9787857,4.20346898 10.8315105,3.58494789 10.5367752,2.9897866 L10.5367752,2.9897866 Z" id="Shape"></path>
            </g>
        </g>
    </g>
</svg>