<?xml version="1.0" encoding="UTF-8" standalone="no"?>
<svg width="16px" height="16px" viewBox="0 0 16 16" version="1.1" xmlns="http://www.w3.org/2000/svg" xmlns:xlink="http://www.w3.org/1999/xlink">
    <!-- Generator: Sketch 41.1 (35376) - http://www.bohemiancoding.com/sketch -->
    <title>Artboard 4 Copy 5</title>
    <desc>Created with Sketch.</desc>
    <defs></defs>
    <g id="Page-1" stroke="none" stroke-width="1" fill="none" fill-rule="evenodd">
        <g id="Artboard-4-Copy-5" fill="#FFFFFF">
            <path d="M15.6442189,3.03569031 C15.5197488,3.19392675 15.3899369,3.34093689 15.2542486,3.47672083 C15.1185602,3.61197028 14.9716536,3.74775422 14.8135287,3.88353816 C14.6554038,4.0193221 14.4972788,4.14387984 14.3391539,4.25667679 L14.3391539,4.35878204 C14.3391539,4.38123454 14.344496,4.41491323 14.3557143,4.4603527 C14.3674669,4.50579228 14.3728089,4.53947097 14.3728089,4.56192337 L14.3728089,4.6977074 C14.3728089,5.76045745 14.1692764,6.85207502 13.7627458,7.97149084 C13.3556809,9.09090665 12.7568361,10.0916451 11.9662115,10.9731717 C11.1750526,11.8552329 10.19799,12.5849381 9.03395546,13.161218 C7.86992088,13.7380326 6.54241925,14.0149463 5.05091647,13.9924938 C4.57600748,14.0149463 4.1187272,13.987148 3.67800737,13.9074952 C3.23728755,13.828377 2.80190978,13.7326867 2.37294243,13.6193553 C1.94344095,13.5065583 1.53637608,13.3536677 1.15228205,13.161218 C0.768188039,12.9693029 0.384094015,12.7715073 0,12.5678314 C0.0678441468,12.5453789 0.135688294,12.5394985 0.20353244,12.5507248 C0.270842372,12.561951 0.338686518,12.5678314 0.406530665,12.5678314 C0.474374812,12.5678314 0.542218959,12.5731773 0.610063105,12.5849381 C0.677907242,12.5961642 0.745751389,12.5902839 0.813595536,12.5678314 C1.19768956,12.5902839 1.57056525,12.561951 1.93222262,12.4828328 C2.29387998,12.4037145 2.64378487,12.3133701 2.98300556,12.2117994 C3.32169205,12.1096942 3.64969444,11.9626839 3.96594435,11.7707688 C4.28219426,11.5783191 4.58722577,11.3917498 4.88103899,11.2110609 C4.5199159,11.1656214 4.17481888,11.0923836 3.84735067,10.9902783 C3.51988247,10.8887077 3.22019301,10.7304713 2.94881638,10.515569 C2.67797404,10.3006668 2.44612864,10.0633122 2.25434875,9.80297056 C2.06203468,9.54316346 1.90925177,9.23203635 1.79653433,8.87012401 C1.84194184,8.91556358 1.89269139,8.93801598 1.948783,8.93801598 C2.00540882,8.93801598 2.06203468,8.94389642 2.11866044,8.95512262 C2.17475211,8.96634891 2.22603582,8.96634891 2.2709091,8.95512262 C2.31631667,8.94389642 2.36172414,8.94924227 2.40659742,8.97222926 C2.49687826,8.94924227 2.57594071,8.94389642 2.64378487,8.95512262 C2.71162903,8.96634891 2.78534943,8.96046847 2.86441188,8.93801598 C2.94347433,8.91556358 3.01666054,8.90433729 3.0845047,8.90433729 C3.15234885,8.90433729 3.22019301,8.8813503 3.28803717,8.83644532 C2.9039431,8.76855335 2.55350402,8.63276941 2.23725422,8.4290934 C1.9210043,8.22541749 1.64375146,7.98806289 1.40656406,7.7170295 C1.16937665,7.44546162 0.982938795,7.12898875 0.847250511,6.76707631 C0.711562218,6.40516397 0.643718071,6.03202533 0.643718071,5.64766049 L0.643718071,5.59687516 C0.756969714,5.67011299 0.875563422,5.7326591 1.00003338,5.76633789 C1.12396914,5.80001658 1.24843911,5.83957562 1.37290908,5.88501519 C1.49684484,5.93045467 1.62131481,5.9587876 1.74578478,5.9700138 C1.86972054,5.98124 2.00006676,5.99834664 2.13522089,6.02079913 C1.90925177,5.83957562 1.7115956,5.65888679 1.54225234,5.47819786 C1.37290908,5.29697435 1.2201262,5.08207224 1.08443792,4.83349134 C0.949283829,4.58491045 0.847250511,4.33579496 0.779406364,4.08721416 C0.711562218,3.83863327 0.677907242,3.55583909 0.677907242,3.23936622 C0.677907242,3.12603468 0.689125567,2.99025074 0.711562218,2.83201431 C0.734533074,2.67377787 0.762311769,2.53264808 0.79650095,2.40809043 C0.830690121,2.28353269 0.875563422,2.14774866 0.932189244,2.00073852 C0.988815065,1.85372828 1.05078294,1.73505098 1.11862709,1.64470652 C1.52515775,2.1199504 1.97709591,2.56632677 2.47444157,2.98490498 C2.97178726,3.40294851 3.50866417,3.75363466 4.08453803,4.03642873 C4.66094617,4.31922291 5.26566724,4.55069717 5.89816695,4.73192068 C6.53120096,4.91260951 7.18667155,5.01418027 7.86457883,5.03716725 C7.86457883,4.99172778 7.85870249,4.935062 7.84748419,4.86717003 C7.8362659,4.79981265 7.82451332,4.73726644 7.81329502,4.68060076 C7.80207673,4.62446958 7.79673467,4.56192337 7.79673467,4.4940314 L7.79673467,4.32456876 C7.79673467,3.84985946 7.88113918,3.42005515 8.05101666,3.03569031 C8.22035986,2.65132548 8.45220526,2.30063933 8.7454843,1.98416646 C9.03929751,1.66715901 9.38973659,1.42980431 9.79680143,1.27156788 C10.2033321,1.11333154 10.6328336,1.02298708 11.0847717,1 C11.3107408,1.02298708 11.53671,1.05131992 11.762679,1.08499861 C11.9886481,1.1186773 12.2033988,1.18656927 12.4069313,1.28867462 C12.6099295,1.39024528 12.8022437,1.50357672 12.9828052,1.62759988 C13.1639011,1.75215762 13.322026,1.9050482 13.4577143,2.08573713 C13.6382758,2.01784516 13.8193716,1.96117939 13.9999331,1.91627449 C14.181029,1.87083492 14.3615905,1.81416915 14.5421521,1.74627718 C14.7232479,1.6789198 14.8925912,1.60514739 15.0507161,1.52602922 C15.2088411,1.44691095 15.366966,1.35068614 15.5256252,1.23788919 C15.4802176,1.46401759 15.4064972,1.65593281 15.3049981,1.81416915 C15.203499,1.97240558 15.0961237,2.13652246 14.982872,2.30651968 C14.8701546,2.4759824 14.7344663,2.6171122 14.5763413,2.73044364 C14.4182164,2.8432406 14.2600915,2.96779834 14.1014323,3.10358228 C14.2600915,3.05814271 14.4235584,3.02446402 14.5934359,3.00147704 C14.7627792,2.97902454 14.9267804,2.93946541 15.0849053,2.88279964 C15.2430303,2.82613396 15.3952789,2.77534863 15.5421855,2.73044364 C15.6890921,2.68500417 15.841875,2.6283384 16,2.56044643 C15.8872826,2.73044364 15.7681546,2.87745388 15.6442189,3.03569031 L15.6442189,3.03569031 Z" id="tw-copy-3"></path>
        </g>
    </g>
</svg>