<?xml version="1.0" encoding="UTF-8" standalone="no"?>
<svg width="20px" height="20px" viewBox="0 0 20 20" version="1.1" xmlns="http://www.w3.org/2000/svg" xmlns:xlink="http://www.w3.org/1999/xlink">
    <!-- Generator: Sketch 3.8.3 (29802) - http://www.bohemiancoding.com/sketch -->
    <title>Artboard 11 Copy</title>
    <desc>Created with Sketch.</desc>
    <defs></defs>
    <g id="Page-1" stroke="none" stroke-width="1" fill="none" fill-rule="evenodd">
        <g id="Artboard-11-Copy" fill="#4E4E4E">
            <path d="M17.6442189,7.03569031 C17.5197488,7.19392675 17.3899369,7.34093689 17.2542486,7.47672083 C17.1185602,7.61197028 16.9716536,7.74775422 16.8135287,7.88353816 C16.6554038,8.0193221 16.4972788,8.14387984 16.3391539,8.25667679 L16.3391539,8.35878204 C16.3391539,8.38123454 16.344496,8.41491323 16.3557143,8.4603527 C16.3674669,8.50579228 16.3728089,8.53947097 16.3728089,8.56192337 L16.3728089,8.6977074 C16.3728089,9.76045745 16.1692764,10.852075 15.7627458,11.9714908 C15.3556809,13.0909067 14.7568361,14.0916451 13.9662115,14.9731717 C13.1750526,15.8552329 12.19799,16.5849381 11.0339555,17.161218 C9.86992088,17.7380326 8.54241925,18.0149463 7.05091647,17.9924938 C6.57600748,18.0149463 6.1187272,17.987148 5.67800737,17.9074952 C5.23728755,17.828377 4.80190978,17.7326867 4.37294243,17.6193553 C3.94344095,17.5065583 3.53637608,17.3536677 3.15228205,17.161218 C2.76818804,16.9693029 2.38409401,16.7715073 2,16.5678314 C2.06784415,16.5453789 2.13568829,16.5394985 2.20353244,16.5507248 C2.27084237,16.561951 2.33868652,16.5678314 2.40653067,16.5678314 C2.47437481,16.5678314 2.54221896,16.5731773 2.61006311,16.5849381 C2.67790724,16.5961642 2.74575139,16.5902839 2.81359554,16.5678314 C3.19768956,16.5902839 3.57056525,16.561951 3.93222262,16.4828328 C4.29387998,16.4037145 4.64378487,16.3133701 4.98300556,16.2117994 C5.32169205,16.1096942 5.64969444,15.9626839 5.96594435,15.7707688 C6.28219426,15.5783191 6.58722577,15.3917498 6.88103899,15.2110609 C6.5199159,15.1656214 6.17481888,15.0923836 5.84735067,14.9902783 C5.51988247,14.8887077 5.22019301,14.7304713 4.94881638,14.515569 C4.67797404,14.3006668 4.44612864,14.0633122 4.25434875,13.8029706 C4.06203468,13.5431635 3.90925177,13.2320364 3.79653433,12.870124 C3.84194184,12.9155636 3.89269139,12.938016 3.948783,12.938016 C4.00540882,12.938016 4.06203468,12.9438964 4.11866044,12.9551226 C4.17475211,12.9663489 4.22603582,12.9663489 4.2709091,12.9551226 C4.31631667,12.9438964 4.36172414,12.9492423 4.40659742,12.9722293 C4.49687826,12.9492423 4.57594071,12.9438964 4.64378487,12.9551226 C4.71162903,12.9663489 4.78534943,12.9604685 4.86441188,12.938016 C4.94347433,12.9155636 5.01666054,12.9043373 5.0845047,12.9043373 C5.15234885,12.9043373 5.22019301,12.8813503 5.28803717,12.8364453 C4.9039431,12.7685533 4.55350402,12.6327694 4.23725422,12.4290934 C3.9210043,12.2254175 3.64375146,11.9880629 3.40656406,11.7170295 C3.16937665,11.4454616 2.98293879,11.1289888 2.84725051,10.7670763 C2.71156222,10.405164 2.64371807,10.0320253 2.64371807,9.64766049 L2.64371807,9.59687516 C2.75696971,9.67011299 2.87556342,9.7326591 3.00003338,9.76633789 C3.12396914,9.80001658 3.24843911,9.83957562 3.37290908,9.88501519 C3.49684484,9.93045467 3.62131481,9.9587876 3.74578478,9.9700138 C3.86972054,9.98124 4.00006676,9.99834664 4.13522089,10.0207991 C3.90925177,9.83957562 3.7115956,9.65888679 3.54225234,9.47819786 C3.37290908,9.29697435 3.2201262,9.08207224 3.08443792,8.83349134 C2.94928383,8.58491045 2.84725051,8.33579496 2.77940636,8.08721416 C2.71156222,7.83863327 2.67790724,7.55583909 2.67790724,7.23936622 C2.67790724,7.12603468 2.68912557,6.99025074 2.71156222,6.83201431 C2.73453307,6.67377787 2.76231177,6.53264808 2.79650095,6.40809043 C2.83069012,6.28353269 2.87556342,6.14774866 2.93218924,6.00073852 C2.98881507,5.85372828 3.05078294,5.73505098 3.11862709,5.64470652 C3.52515775,6.1199504 3.97709591,6.56632677 4.47444157,6.98490498 C4.97178726,7.40294851 5.50866417,7.75363466 6.08453803,8.03642873 C6.66094617,8.31922291 7.26566724,8.55069717 7.89816695,8.73192068 C8.53120096,8.91260951 9.18667155,9.01418027 9.86457883,9.03716725 C9.86457883,8.99172778 9.85870249,8.935062 9.84748419,8.86717003 C9.8362659,8.79981265 9.82451332,8.73726644 9.81329502,8.68060076 C9.80207673,8.62446958 9.79673467,8.56192337 9.79673467,8.4940314 L9.79673467,8.32456876 C9.79673467,7.84985946 9.88113918,7.42005515 10.0510167,7.03569031 C10.2203599,6.65132548 10.4522053,6.30063933 10.7454843,5.98416646 C11.0392975,5.66715901 11.3897366,5.42980431 11.7968014,5.27156788 C12.2033321,5.11333154 12.6328336,5.02298708 13.0847717,5 C13.3107408,5.02298708 13.53671,5.05131992 13.762679,5.08499861 C13.9886481,5.1186773 14.2033988,5.18656927 14.4069313,5.28867462 C14.6099295,5.39024528 14.8022437,5.50357672 14.9828052,5.62759988 C15.1639011,5.75215762 15.322026,5.9050482 15.4577143,6.08573713 C15.6382758,6.01784516 15.8193716,5.96117939 15.9999331,5.91627449 C16.181029,5.87083492 16.3615905,5.81416915 16.5421521,5.74627718 C16.7232479,5.6789198 16.8925912,5.60514739 17.0507161,5.52602922 C17.2088411,5.44691095 17.366966,5.35068614 17.5256252,5.23788919 C17.4802176,5.46401759 17.4064972,5.65593281 17.3049981,5.81416915 C17.203499,5.97240558 17.0961237,6.13652246 16.982872,6.30651968 C16.8701546,6.4759824 16.7344663,6.6171122 16.5763413,6.73044364 C16.4182164,6.8432406 16.2600915,6.96779834 16.1014323,7.10358228 C16.2600915,7.05814271 16.4235584,7.02446402 16.5934359,7.00147704 C16.7627792,6.97902454 16.9267804,6.93946541 17.0849053,6.88279964 C17.2430303,6.82613396 17.3952789,6.77534863 17.5421855,6.73044364 C17.6890921,6.68500417 17.841875,6.6283384 18,6.56044643 C17.8872826,6.73044364 17.7681546,6.87745388 17.6442189,7.03569031 L17.6442189,7.03569031 Z" id="tw-copy-2"></path>
        </g>
    </g>
</svg>