<?xml version="1.0" encoding="UTF-8" standalone="no"?>
<svg width="16px" height="16px" viewBox="0 0 16 16" version="1.1" xmlns="http://www.w3.org/2000/svg" xmlns:xlink="http://www.w3.org/1999/xlink">
    <!-- Generator: Sketch 41.1 (35376) - http://www.bohemiancoding.com/sketch -->
    <title>Artboard 4 Copy 2</title>
    <desc>Created with Sketch.</desc>
    <defs></defs>
    <g id="Page-1" stroke="none" stroke-width="1" fill="none" fill-rule="evenodd">
        <g id="Artboard-4-Copy-2" fill="#7D7D7D">
            <path d="M13.7816705,2.00279939 C11.7005417,1.93489601 10.2922167,3.10230504 9.55478113,5.50634903 C9.93456669,5.34993807 10.3036325,5.27100171 10.6635795,5.27100171 C11.4224546,5.27100171 11.7583518,5.69690309 11.6686957,6.55096814 C11.6242157,7.06816146 11.2889449,7.82070209 10.6635795,8.80831161 C10.0357431,9.79755693 9.56678864,10.2913269 9.2552545,10.2913269 C8.85079262,10.2913269 8.48263173,9.52709198 8.14649088,8.0005016 C8.03375945,7.55089842 7.83217239,6.40604264 7.54353954,4.5630455 C7.27293537,2.85602914 6.55787907,2.05845161 5.39516864,2.17055657 C4.90331292,2.21576748 4.16650388,2.66620596 3.18314049,3.51867002 C2.4657175,4.17034751 1.7388277,4.82219903 1,5.47338926 L1.70391889,6.38220163 C2.37574813,5.91018442 2.76875936,5.67528956 2.87790595,5.67528956 C3.39308061,5.67528956 3.87418176,6.48341281 4.3218707,8.09945049 C4.72316537,9.58364912 5.12787088,11.0658291 5.5311146,12.5478699 C6.13169925,14.1650909 6.87209315,14.9740146 7.74300353,14.9740146 C9.15164182,14.9740146 10.8763736,13.6491853 12.9103773,10.9985522 C14.8781134,8.46099855 15.8939841,6.46172967 15.9625139,5.00032792 C16.0528313,3.04727929 15.3259415,2.04714019 13.7816705,2.00279939 Z" id="Vimeo"></path>
        </g>
    </g>
</svg>