<?xml version="1.0" encoding="UTF-8" standalone="no"?>
<svg width="41px" height="35px" viewBox="0 0 41 35" version="1.1" xmlns="http://www.w3.org/2000/svg" xmlns:xlink="http://www.w3.org/1999/xlink">
    <!-- Generator: Sketch 39.1 (31720) - http://www.bohemiancoding.com/sketch -->
    <title>“</title>
    <desc>Created with Sketch.</desc>
    <defs></defs>
    <g id="Page-1" stroke="none" stroke-width="1" fill="none" fill-rule="evenodd">
        <g id="story-elements" transform="translate(-300.000000, -2111.000000)" fill="#48C6D6">
            <path d="M317.619127,2117.69347 C314.650297,2119.21087 312.423708,2120.94267 310.939293,2122.8889 C309.454878,2124.83513 308.712682,2127.29263 308.712682,2130.26146 C308.910604,2130.19548 309.240469,2130.16249 309.702287,2130.16249 C311.813455,2130.16249 313.611219,2130.80573 315.095634,2132.09222 C316.580049,2133.37872 317.322245,2135.1435 317.322245,2137.38661 C317.322245,2139.89362 316.596542,2141.87281 315.145114,2143.32424 C313.693686,2144.77567 311.879429,2145.50137 309.702287,2145.50137 C306.601509,2145.50137 304.275961,2144.36334 302.725572,2142.08723 C301.175183,2139.81113 300.4,2136.62793 300.4,2132.53755 C300.4,2127.85339 301.554528,2123.73008 303.863617,2120.16748 C306.172707,2116.60489 309.702263,2113.66909 314.452391,2111.36 L317.619127,2117.69347 Z M340.973805,2117.69347 C338.004975,2119.21087 335.778386,2120.94267 334.293971,2122.8889 C332.809556,2124.83513 332.06736,2127.29263 332.06736,2130.26146 C332.265282,2130.19548 332.595147,2130.16249 333.056965,2130.16249 C335.168133,2130.16249 336.965897,2130.80573 338.450312,2132.09222 C339.934727,2133.37872 340.676923,2135.1435 340.676923,2137.38661 C340.676923,2139.89362 339.95122,2141.87281 338.499792,2143.32424 C337.048364,2144.77567 335.234107,2145.50137 333.056965,2145.50137 C329.956187,2145.50137 327.630638,2144.36334 326.080249,2142.08723 C324.529861,2139.81113 323.754678,2136.62793 323.754678,2132.53755 C323.754678,2127.85339 324.909205,2123.73008 327.218295,2120.16748 C329.527385,2116.60489 333.056941,2113.66909 337.807069,2111.36 L340.973805,2117.69347 Z" id="“"></path>
        </g>
    </g>
</svg>