<?xml version="1.0" encoding="UTF-8" standalone="no"?>
<svg width="35px" height="35px" viewBox="0 0 35 35" version="1.1" xmlns="http://www.w3.org/2000/svg" xmlns:xlink="http://www.w3.org/1999/xlink" xmlns:sketch="http://www.bohemiancoding.com/sketch/ns">
    <!-- Generator: Sketch 3.4.3 (16044) - http://www.bohemiancoding.com/sketch -->
    <title>cook</title>
    <desc>Created with Sketch.</desc>
    <defs></defs>
    <g id="Page-1" stroke="none" stroke-width="1" fill="none" fill-rule="evenodd" sketch:type="MSPage">
        <g id="cook" sketch:type="MSArtboardGroup" fill="#FF8A00">
            <g id="Fill-13-+-Fill-14" sketch:type="MSLayerGroup" transform="translate(3.000000, 2.000000)">
                <path d="M15.1495909,28.5969489 C7.94481818,28.5969489 2.08254545,22.6738822 2.08254545,15.3943933 C2.08254545,8.11490444 7.94481818,2.19252667 15.1495909,2.19252667 C22.3543636,2.19252667 28.2159545,8.11490444 28.2159545,15.3943933 C28.2159545,22.6738822 22.3543636,28.5969489 15.1495909,28.5969489 M15.1495909,0.470304444 C7.00459091,0.470304444 0.378,7.16561556 0.378,15.3943933 C0.378,23.62386 7.00459091,30.3191711 15.1495909,30.3191711 C23.2945909,30.3191711 29.9205,23.62386 29.9205,15.3943933 C29.9205,7.16561556 23.2945909,0.470304444 15.1495909,0.470304444" id="Fill-13" sketch:type="MSShapeGroup"></path>
                <path d="M15.4808864,4.65 C15.0104318,4.65 14.6286136,5.03577778 14.6286136,5.51111111 L14.6286136,15.3725556 L8.92656818,21.1344222 C8.59384091,21.4706 8.59384091,22.0155111 8.92656818,22.3516889 C9.09293182,22.5197778 9.31111364,22.6038222 9.52929545,22.6038222 C9.74747727,22.6038222 9.96565909,22.5197778 10.1320227,22.3516889 L16.3331591,16.0862444 L16.3331591,5.51111111 C16.3331591,5.03577778 15.9513409,4.65 15.4808864,4.65" id="Fill-14" sketch:type="MSShapeGroup"></path>
            </g>
        </g>
    </g>
</svg>