<?xml version="1.0" encoding="UTF-8" standalone="no"?>
<svg width="35px" height="35px" viewBox="0 0 35 35" version="1.1" xmlns="http://www.w3.org/2000/svg" xmlns:xlink="http://www.w3.org/1999/xlink" xmlns:sketch="http://www.bohemiancoding.com/sketch/ns">
    <!-- Generator: Sketch 3.4.3 (16044) - http://www.bohemiancoding.com/sketch -->
    <title>difficulty</title>
    <desc>Created with Sketch.</desc>
    <defs></defs>
    <g id="Page-1" stroke="none" stroke-width="1" fill="none" fill-rule="evenodd" sketch:type="MSPage">
        <g id="difficulty" sketch:type="MSArtboardGroup" fill="#FF8A00">
            <g id="Fill-19-+-Fill-20-+-Fill-21" sketch:type="MSLayerGroup" transform="translate(2.000000, 3.000000)">
                <path d="M15.317286,28.1632653 C7.967186,28.1632653 1.987286,22.2581633 1.987286,15 C1.987286,7.74183673 7.967186,1.83673469 15.317286,1.83673469 C22.667386,1.83673469 28.647286,7.74183673 28.647286,15 C28.647286,22.2581633 22.667386,28.1632653 15.317286,28.1632653 M15.317286,0 C6.941706,0 0.127286,6.72857143 0.127286,15 C0.127286,23.2714286 6.941706,30 15.317286,30 C23.692866,30 30.507286,23.2714286 30.507286,15 C30.507286,6.72857143 23.692866,0 15.317286,0" id="Fill-19" sketch:type="MSShapeGroup"></path>
                <path d="M15.317286,23.3292857 C10.666046,23.3292857 6.882186,19.5927551 6.882186,15.0003061 C6.882186,10.4072449 10.666046,6.67010204 15.317286,6.67010204 C19.968526,6.67010204 23.752386,10.4072449 23.752386,15.0003061 C23.752386,19.5927551 19.968526,23.3292857 15.317286,23.3292857 M15.317286,4.83336735 C9.640566,4.83336735 5.022186,9.39397959 5.022186,15.0003061 C5.022186,20.6054082 9.640566,25.1660204 15.317286,25.1660204 C20.994006,25.1660204 25.612386,20.6054082 25.612386,15.0003061 C25.612386,9.39397959 20.994006,4.83336735 15.317286,4.83336735" id="Fill-20" sketch:type="MSShapeGroup"></path>
                <path d="M15.317286,11.323898 C13.261366,11.323898 11.594806,12.9696122 11.594806,14.9998163 C11.594806,17.0300204 13.261366,18.6757347 15.317286,18.6757347 C17.373206,18.6757347 19.039766,17.0300204 19.039766,14.9998163 C19.039766,12.9696122 17.373206,11.323898 15.317286,11.323898" id="Fill-21" sketch:type="MSShapeGroup"></path>
            </g>
        </g>
    </g>
</svg>