<?xml version="1.0" encoding="UTF-8" standalone="no"?>
<svg width="35px" height="35px" viewBox="0 0 35 35" version="1.1" xmlns="http://www.w3.org/2000/svg" xmlns:xlink="http://www.w3.org/1999/xlink" xmlns:sketch="http://www.bohemiancoding.com/sketch/ns">
    <!-- Generator: Sketch 3.4.3 (16044) - http://www.bohemiancoding.com/sketch -->
    <title>prep</title>
    <desc>Created with Sketch.</desc>
    <defs></defs>
    <g id="Page-1" stroke="none" stroke-width="1" fill="none" fill-rule="evenodd" sketch:type="MSPage">
        <g id="prep" sketch:type="MSArtboardGroup" fill="#FF8A00">
            <path d="M17.6090203,28.3288211 C15.0815795,28.3288211 12.6366596,27.4281285 10.713732,25.7949834 L14.2666062,21.8109538 L3.56512388,21.8550928 L5.62942441,31.4965981 L8.15686518,28.6627427 C10.7834589,30.9227904 14.140586,32.167 17.6090203,32.167 C24.7870544,32.167 30.8097968,27.0283182 31.9299053,19.9481576 L28.139064,19.348762 C27.3157746,24.5520532 22.8871559,28.3288211 17.6090203,28.3288211 Z M17.6090203,7.00517885 C20.4473536,7.00517885 23.1161672,8.10801557 25.1280127,10.1102655 L21.9992572,13.3682397 L32.6949823,13.7200727 L30.9889118,4.00884056 L27.7846721,7.34485768 C25.0544476,4.65237522 21.4465594,3.167 17.6090203,3.167 C10.4169128,3.167 4.39161173,8.31783602 3.28301774,15.4146287 L7.07513844,16.006348 C7.89011175,10.7909026 12.3200098,7.00517885 17.6090203,7.00517885 Z" id="Fill-11" sketch:type="MSShapeGroup"></path>
        </g>
    </g>
</svg>