<?xml version="1.0" encoding="UTF-8" standalone="no"?>
<svg width="94px" height="34px" viewBox="0 0 94 34" version="1.1" xmlns="http://www.w3.org/2000/svg" xmlns:xlink="http://www.w3.org/1999/xlink">
    <!-- Generator: Sketch 41.1 (35376) - http://www.bohemiancoding.com/sketch -->
    <title>Artboard 3</title>
    <desc>Created with Sketch.</desc>
    <defs></defs>
    <g id="Page-1" stroke="none" stroke-width="1" fill="none" fill-rule="evenodd">
        <g id="Artboard-3" fill="#0065A7">
            <g id="q" transform="translate(3.000000, 2.000000)">
                <path d="M21.9002644,23.0898049 L20.664082,24.6707498 C20.664082,24.6707498 19.2435947,21.9177657 15.8235024,22.8444766 C15.8235024,22.8444766 22.216468,18.6195993 21.5850912,11.3964096 C20.9537145,4.17321997 15.8236496,0.466223948 15.481611,0.2481205 C15.1395723,0.0300933119 10.412564,5.45431082 5.51928381,6.84437713 C5.51928381,6.84437713 5.74112684,1.72001374 9.42133635,1.2566583 L9.42133635,0.602500474 C9.42133635,0.602500474 0.0571168516,1.96534199 0.0735305861,13.4680111 C0.0735305861,13.4680111 0.436840869,23.4859753 10.0006749,23.9076165 C13.7101053,24.0711941 13.7145952,24.0711941 13.7145952,24.0711941 C13.7145952,24.0711941 16.8474839,23.9076165 17.4788607,28.459649 L17.9535341,28.8684786 L22.1371227,23.3352094 L21.9002644,23.0898049 Z M5.18202941,13.8495396 C5.15575272,11.0420297 5.38333687,7.51218549 5.38333687,7.51218549 L7.36041903,6.76262647 L7.36041903,19.0829547 L6.11996761,19.4917843 C6.11996761,19.4918606 5.20837971,16.6570495 5.18202941,13.8495396 Z M14.1320045,23.1716318 C14.1320045,23.1716318 12.5114611,23.6622883 10.0385075,23.3079083 C7.5655539,22.9535283 6.20306674,19.9688665 6.20306674,19.9688665 L12.0710872,18.374271 L12.0710872,3.54628695 L14.1320045,5.61781214 L14.1320045,23.1716318 Z M14.5736297,6.16299451 C20.7563817,14.9398281 14.5736297,23.0080542 14.5736297,23.0080542 L14.5736297,6.16299451 Z" id="Shape"></path>
                <path d="M44.2509429,13.636783 C44.2509429,15.5710372 43.6589901,17.0525145 42.4750667,18.0812591 C41.2911434,19.1100037 39.5815375,19.6243683 37.346198,19.6243683 L33.7685204,19.6243683 L33.7685204,7.87423439 L37.735076,7.87423439 C39.79758,7.87423439 41.3991652,8.38056205 42.5398797,9.39323255 C43.6805943,10.4059031 44.2509429,11.8204057 44.2509429,13.636783 Z M41.4683048,13.7010792 C41.4683048,11.17744 40.2699964,9.91563933 37.8733437,9.91563933 L36.4474577,9.91563933 L36.4474577,17.5668893 L37.5968083,17.5668893 C40.1778189,17.5668893 41.4683048,16.2782989 41.4683048,13.7010792 Z M54.8671245,19.6243683 L47.590785,19.6243683 L47.590785,7.87423439 L54.8671245,7.87423439 L54.8671245,9.91563933 L50.2697224,9.91563933 L50.2697224,12.4955251 L54.5473804,12.4955251 L54.5473804,14.53693 L50.2697224,14.53693 L50.2697224,17.5668893 L54.8671245,17.5668893 L54.8671245,19.6243683 Z M63.573483,19.6243683 L60.5315929,10.405898 L60.4538173,10.405898 C60.5632798,12.2812138 60.6180102,13.5322985 60.6180102,14.1591898 L60.6180102,19.6243683 L58.2242501,19.6243683 L58.2242501,7.87423439 L61.8710616,7.87423439 L64.8611013,16.8596309 L64.9129517,16.8596309 L68.0844678,7.87423439 L71.7312793,7.87423439 L71.7312793,19.6243683 L69.2338184,19.6243683 L69.2338184,14.0627454 C69.2338184,13.8002012 69.2381392,13.4974762 69.246781,13.1545613 C69.2554227,12.8116465 69.2943102,11.9007925 69.3634444,10.4219721 L69.2856688,10.4219721 L66.0277353,19.6243683 L63.573483,19.6243683 Z M87.1004142,13.7332273 C87.1004142,15.6781976 86.5819154,17.1730698 85.5449022,18.2178886 C84.507889,19.2627073 83.0215258,19.7851089 81.0857678,19.7851089 C79.1500099,19.7851089 77.6636466,19.2627073 76.6266334,18.2178886 C75.5896202,17.1730698 75.0711214,15.6728397 75.0711214,13.7171533 C75.0711214,11.7614668 75.5910605,10.2679342 76.6309543,9.23651052 C77.670848,8.20508686 79.1615321,7.68938276 81.1030513,7.68938276 C83.0445704,7.68938276 84.5294934,8.20910533 85.5578648,9.24856606 C86.5862362,10.2880268 87.1004142,11.7828989 87.1004142,13.7332273 Z M77.8796847,13.7332273 C77.8796847,15.0459483 78.1475758,16.0344928 78.6833659,16.6988904 C79.2191561,17.363288 80.0199487,17.6954818 81.0857678,17.6954818 C83.2231672,17.6954818 84.2918509,16.3747435 84.2918509,13.7332273 C84.2918509,11.0863531 83.2289283,9.76293581 81.1030513,9.76293581 C80.0372322,9.76293581 79.233559,10.0964691 78.6920077,10.7635457 C78.1504563,11.4306223 77.8796847,12.4205063 77.8796847,13.7332273 Z" id="DEMO"></path>
            </g>
        </g>
    </g>
</svg>