<?xml version="1.0" encoding="UTF-8" standalone="no"?>
<svg width="62px" height="76px" viewBox="0 0 62 76" version="1.1" xmlns="http://www.w3.org/2000/svg" xmlns:xlink="http://www.w3.org/1999/xlink">
    <!-- Generator: Sketch 41.1 (35376) - http://www.bohemiancoding.com/sketch -->
    <title>Artboard 5</title>
    <desc>Created with Sketch.</desc>
    <defs></defs>
    <g id="Page-1" stroke="none" stroke-width="1" fill="none" fill-rule="evenodd">
        <g id="Artboard-5" fill="#FFFFFF">
            <path d="M57.3054147,58.0564565 L54.2864037,61.7968278 C54.2864037,61.7968278 50.8172824,55.2835191 42.4647153,57.4760323 C42.4647153,57.4760323 58.0776488,47.4803587 56.5356973,30.3909521 C54.9937457,13.3015455 42.4650748,4.53113176 41.6297462,4.01511893 C40.7944176,3.49928653 29.2500934,16.3324894 17.2996993,19.6212593 C17.2996993,19.6212593 17.8414855,7.49748381 26.8293122,6.40122719 L26.8293122,4.85354956 C26.8293122,4.85354956 3.95996693,8.07790802 4.00005264,35.2921718 C4.00005264,35.2921718 4.88733089,58.9937596 28.2441759,59.9913242 C37.3033659,60.3783338 37.3143311,60.3783338 37.3143311,60.3783338 C37.3143311,60.3783338 44.9654882,59.9913242 46.5074397,70.7610171 L47.6666896,71.7282705 L57.8838713,58.6370612 L57.3054147,58.0564565 Z M16.4760549,36.1948334 C16.4118818,29.5525215 16.967689,21.2012328 16.967689,21.2012328 L21.7961293,19.4278447 L21.7961293,48.5766153 L18.7666924,49.5438687 C18.7666924,49.5440492 16.5404077,42.8371454 16.4760549,36.1948334 Z M38.3337304,58.2500516 C38.3337304,58.2500516 34.3760308,59.4109 28.3365707,58.5724694 C22.2971107,57.7340387 18.9696375,50.6726017 18.9696375,50.6726017 L33.3005474,46.8999345 L33.3005474,11.8182793 L38.3337304,16.7193186 L38.3337304,58.2500516 Z M39.4122696,18.0091703 C54.5118184,38.7743563 39.4122696,57.8630419 39.4122696,57.8630419 L39.4122696,18.0091703 Z" id="Shape-Copy"></path>
        </g>
    </g>
</svg>