<?xml version="1.0" encoding="UTF-8" standalone="no"?>
<svg width="35px" height="35px" viewBox="0 0 35 35" version="1.1" xmlns="http://www.w3.org/2000/svg" xmlns:xlink="http://www.w3.org/1999/xlink" xmlns:sketch="http://www.bohemiancoding.com/sketch/ns">
    <!-- Generator: Sketch 3.4.3 (16044) - http://www.bohemiancoding.com/sketch -->
    <title>serve</title>
    <desc>Created with Sketch.</desc>
    <defs></defs>
    <g id="Page-1" stroke="none" stroke-width="1" fill="none" fill-rule="evenodd" sketch:type="MSPage">
        <g id="serve" sketch:type="MSArtboardGroup" fill="#FF8A00">
            <path d="M17.6553144,3.1087 C10.2881725,3.1087 4.29415251,9.10272 4.29415251,16.4705032 C4.29415251,18.2739682 4.64753417,20.0235602 5.34467731,21.6711782 L5.84428586,22.8525375 L8.20700464,21.8533204 L7.70739608,20.671961 C7.14493561,19.3424507 6.85953663,17.9282827 6.85953663,16.4705032 C6.85953663,10.5175293 11.7023405,5.67408412 17.6553144,5.67408412 C23.6082882,5.67408412 28.4510921,10.5175293 28.4510921,16.4705032 C28.4510921,22.4234771 23.6082882,27.2662809 17.6553144,27.2662809 C17.1043981,27.2662809 16.5509165,27.2245934 16.0089791,27.1418598 L14.741038,26.9488146 L14.3549477,29.4846969 L15.6228888,29.6783834 C16.2918127,29.779716 16.9754876,29.8316651 17.6553144,29.8316651 C25.0230976,29.8316651 31.0164762,23.8376451 31.0164762,16.4705032 C31.0164762,9.10272 25.0230976,3.1087 17.6553144,3.1087 Z M17.6553785,25.9835247 C22.9092852,25.9835247 27.1684642,21.7243457 27.1684642,16.4704391 C27.1684642,11.215891 22.9092852,6.95671205 17.6553785,6.95671205 C12.4014718,6.95671205 8.14229283,11.215891 8.14229283,16.4704391 C8.14229283,17.7839157 8.40845143,19.0351818 8.88946095,20.1729297 L17.6553785,16.4704391 L16.2065778,25.8738546 C16.6792498,25.9463267 17.1628247,25.9835247 17.6553785,25.9835247 Z M6.00398103,24.1284313 L3.65152379,25.1507369 C3.75413915,25.3880349 6.23999636,30.9844204 12.4565634,32.1087 L12.9132018,29.5850034 C8.07488736,28.709566 6.08607332,24.315063 6.00398103,24.1284313 Z M7.30065443,23.3732464 C9.28626174,28.1018907 13.6127821,28.2667166 13.6127821,28.2667166 L14.719104,20.2864479 L7.30065443,23.3732464 Z" id="Fill-15" sketch:type="MSShapeGroup"></path>
        </g>
    </g>
</svg>