<svg width="16" height="16" viewBox="0 0 16 16" xmlns="http://www.w3.org/2000/svg"><title>Artboard 10 Copy 2</title><path d="M9.029 3.325H5.365c-1.642 0-3.187 1.242-3.187 2.682 0 1.47 1.119 2.657 2.79 2.657.116 0 .229-.002.34-.01a1.49 1.49 0 0 0-.187.683c0 .409.22.74.5 1.01-.211 0-.414.007-.636.007-2.034 0-3.6 1.294-3.6 2.635 0 1.321 1.717 2.148 3.75 2.148 2.32 0 3.6-1.314 3.6-2.636 0-1.059-.312-1.693-1.28-2.377-.331-.234-.964-.803-.964-1.138 0-.392.112-.585.703-1.046.606-.473 1.034-1.137 1.034-1.91 0-.92-.41-1.817-1.18-2.113h1.16l.82-.592zm-1.28 8.948c.03.123.045.249.045.378 0 1.067-.689 1.902-2.666 1.902-1.406 0-2.421-.89-2.421-1.957 0-1.046 1.26-1.917 2.665-1.902.329.003.634.056.912.146.763.53 1.31.83 1.465 1.433zM5.498 8.291C4.554 8.263 3.658 7.237 3.494 6c-.163-1.238.47-2.185 1.414-2.157.943.028 1.84 1.021 2.003 2.259.163 1.237-.47 2.218-1.413 2.19zm7.262-2.345V3.325h-.875v2.621H9.26v.874h2.625v2.621h.875V6.82h2.625v-.874H12.76z" fill="#444" fill-rule="evenodd"/></svg>