<svg width="30" height="30" viewBox="0 0 30 30" xmlns="http://www.w3.org/2000/svg"><title>Artboard 8 Copy</title><path d="M25 23.462c0-.41-.168-.806-.445-1.082l-4.122-4.123a8.442 8.442 0 0 0 1.49-4.795A8.459 8.459 0 0 0 13.462 5 8.459 8.459 0 0 0 5 13.462a8.459 8.459 0 0 0 8.462 8.461c1.706 0 3.389-.517 4.795-1.49l4.123 4.11c.276.289.673.457 1.082.457A1.55 1.55 0 0 0 25 23.462zm-6.154-10a5.391 5.391 0 0 1-5.384 5.384 5.391 5.391 0 0 1-5.385-5.384 5.391 5.391 0 0 1 5.385-5.385 5.391 5.391 0 0 1 5.384 5.385z" fill="#E20C1E" fill-rule="evenodd"/></svg>