<svg width="16" height="16" viewBox="0 0 16 16" xmlns="http://www.w3.org/2000/svg">
    <title>Artboard 10 Copy</title>
    <path d="M14.703 4.746a4.225 4.225 0 0 1-.325.378 6.822 6.822 0 0 1-.763.67v.087c0 .019.004.048.013.087.01.039.015.068.015.087v.116c0 .912-.17 1.848-.51 2.808-.339.96-.838 1.819-1.498 2.575-.66.756-1.475 1.382-2.446 1.877-.97.494-2.078.732-3.322.712a4.936 4.936 0 0 1-1.146-.072 13.5 13.5 0 0 1-1.088-.248 5.146 5.146 0 0 1-1.019-.392c-.32-.165-.64-.335-.96-.51a.342.342 0 0 1 .169-.014c.056.01.113.015.17.015.056 0 .113.004.17.014.056.01.112.005.169-.014.32.019.631-.005.933-.073.302-.068.594-.146.877-.233.282-.087.556-.213.82-.378l.763-.48a4.866 4.866 0 0 1-.862-.19 2.271 2.271 0 0 1-.75-.407 3.179 3.179 0 0 1-.58-.61 2.697 2.697 0 0 1-.381-.8c.038.038.08.057.127.057s.094.005.142.015c.046.01.09.01.127 0a.154.154 0 0 1 .113.015.473.473 0 0 1 .198-.015.41.41 0 0 0 .184-.015.657.657 0 0 1 .183-.029.3.3 0 0 0 .17-.058 2.322 2.322 0 0 1-.877-.35 3.287 3.287 0 0 1-.692-.61 2.644 2.644 0 0 1-.467-.815c-.113-.31-.17-.63-.17-.96v-.043c.095.062.194.116.297.145.104.029.208.063.311.102.104.039.208.063.311.073.104.01.213.024.325.043a4.799 4.799 0 0 1-.494-.465 3.04 3.04 0 0 1-.636-1.193 2.842 2.842 0 0 1 .014-1.44 3.78 3.78 0 0 1 .113-.35c.047-.126.099-.228.155-.305.34.408.716.79 1.131 1.15.415.358.863.659 1.343.901.481.243.986.441 1.513.597a6.62 6.62 0 0 0 1.64.262.953.953 0 0 0-.014-.146 5.464 5.464 0 0 0-.028-.16.844.844 0 0 1-.014-.16V5.85c0-.407.07-.775.212-1.105.141-.33.335-.63.58-.902a2.33 2.33 0 0 1 .876-.611c.34-.136.698-.213 1.075-.233.188.02.377.044.565.073.189.029.368.087.538.175.17.087.33.184.48.29.151.107.283.238.396.393.15-.058.302-.107.453-.145a4.227 4.227 0 0 0 .877-.335c.131-.068.263-.15.395-.247-.038.194-.1.359-.184.494a29.23 29.23 0 0 1-.268.423 1.372 1.372 0 0 1-.34.363 5.743 5.743 0 0 0-.396.32c.133-.039.269-.068.41-.087.142-.02.279-.054.41-.102.133-.049.26-.092.382-.13.123-.04.25-.088.382-.147-.094.146-.193.272-.297.408z" fill="#444" fill-rule="evenodd"/>
</svg>