<?xml version="1.0" encoding="UTF-8" standalone="no"?>
<svg width="55px" height="55px" viewBox="0 0 55 55" version="1.1" xmlns="http://www.w3.org/2000/svg" xmlns:xlink="http://www.w3.org/1999/xlink">
    <!-- Generator: Sketch 3.8.3 (29802) - http://www.bohemiancoding.com/sketch -->
    <title>Artboard 39</title>
    <desc>Created with Sketch.</desc>
    <defs></defs>
    <g id="Page-1" stroke="none" stroke-width="1" fill="none" fill-rule="evenodd">
        <g id="Artboard-39">
            <g id="Group" transform="translate(1.000000, 0.000000)">
                <path d="M26.5912509,52.3957902 C40.3323068,52.3957902 51.4716336,41.2732024 51.4716336,27.552795 C51.4716336,13.8323877 40.3323068,2.70979986 26.5912509,2.70979986 C12.8501949,2.70979986 1.71086808,13.8323877 1.71086808,27.552795 C1.71086808,41.2732024 12.8501949,52.3957902 26.5912509,52.3957902 Z" id="Oval-19" fill="#040404" opacity="0.432952425"></path>
                <path d="M27.1448778,53.5037594 C41.8027732,53.5037594 53.6862611,41.6381288 53.6862611,27 C53.6862611,12.3618712 41.8027732,0.496240602 27.1448778,0.496240602 C12.4869824,0.496240602 0.603494528,12.3618712 0.603494528,27 C0.603494528,41.6381288 12.4869824,53.5037594 27.1448778,53.5037594 L27.1448778,53.5037594 Z M27.1448778,50.4962406 C14.1469775,50.4962406 3.61101332,39.9761087 3.61101332,27 C3.61101332,14.0238913 14.1469775,3.5037594 27.1448778,3.5037594 C40.1427781,3.5037594 50.6787423,14.0238913 50.6787423,27 C50.6787423,39.9761087 40.1427781,50.4962406 27.1448778,50.4962406 L27.1448778,50.4962406 Z" id="Oval-19" fill="#FFFFFF"></path>
                <polygon id="Triangle-1" fill="#FFFFFF" transform="translate(30.854306, 27.552795) rotate(-270.000000) translate(-30.854306, -27.552795) " points="30.854306 17.615597 41.8043058 37.4899931 19.9043062 37.4899931"></polygon>
            </g>
        </g>
    </g>
</svg>